<svg xmlns="http://www.w3.org/2000/svg" viewBox="0 0 50 41" width="50" height="41">
	<style>
		tspan { white-space:pre }
		.shp0 { fill: #f3f3f3 } 
	</style>
	<path id="Layer" class="shp0" d="M49.84,5.06c-1.81,0.8 -3.76,1.35 -5.81,1.59c2.09,-1.25 3.69,-3.23 4.44,-5.59c-1.95,1.16 -4.11,2 -6.42,2.45c-1.84,-1.96 -4.47,-3.19 -7.38,-3.19c-5.58,0 -10.11,4.53 -10.11,10.11c0,0.79 0.09,1.56 0.26,2.3c-8.4,-0.42 -15.85,-4.45 -20.83,-10.56c-0.87,1.49 -1.37,3.23 -1.37,5.08c0,3.51 1.78,6.6 4.5,8.41c-1.66,-0.05 -3.22,-0.51 -4.58,-1.26c0,0.04 0,0.08 0,0.13c0,4.9 3.48,8.98 8.11,9.91c-0.85,0.23 -1.74,0.35 -2.66,0.35c-0.65,0 -1.28,-0.06 -1.9,-0.18c1.29,4.02 5.02,6.94 9.44,7.02c-3.46,2.71 -7.82,4.33 -12.55,4.33c-0.82,0 -1.62,-0.05 -2.41,-0.14c4.47,2.87 9.79,4.54 15.49,4.54c18.59,0 28.76,-15.4 28.76,-28.76c0,-0.44 -0.01,-0.88 -0.03,-1.31c1.97,-1.42 3.69,-3.2 5.04,-5.23z" />
</svg>